<svg viewBox="0 0 71 69" fill="none" xmlns="http://www.w3.org/2000/svg">
<g id="Component 1">
<g id="Avatar" clip-path="url(#clip0_266_119)">
<ellipse id="Background" cx="35.5" cy="34.5" rx="35.5" ry="34.5" fill="#0B747F"/>
</g>
<g id="Plant">
<path id="Vector 23" d="M30.4746 61C30.618 58.5537 31.0918 54.2598 33.1237 47.8511M52.4035 22.0742C46.2217 25.8568 41.7181 30.756 38.4386 35.874M33.1237 47.8511C32.7507 43.121 28.8851 34.7283 20.1724 29.1042M33.1237 47.8511C34.421 43.7593 35.6701 40.1944 38.4386 35.874M38.4386 35.874C45.7918 34.7023 58.055 29.9114 63 19.0798C52.9052 14.6101 36.8036 11.503 38.4386 35.874Z" stroke="white" stroke-width="3"/>
<path id="Vector 24" d="M30.0178 39.8775C23.693 38.7622 10.6347 34.3503 9 25.6257C18.6331 22.1144 36.3231 20.049 30.0178 39.8775Z" stroke="white" stroke-width="3"/>
</g>
</g>
<defs>
<clipPath id="clip0_266_119">
<rect width="71" height="69" fill="white"/>
</clipPath>
</defs>
</svg>
