<svg width="48" height="45" viewBox="0 0 48 45" fill="none" xmlns="http://www.w3.org/2000/svg">
<path d="M2 17.8917V41C2 42.1046 2.89543 43 4 43H13.6434C14.748 43 15.6434 42.1046 15.6434 41V30.4923C15.6434 29.3877 16.5388 28.4923 17.6434 28.4923H31.0388C32.1433 28.4923 33.0388 29.3877 33.0388 30.4923V41C33.0388 42.1046 33.9342 43 35.0388 43H44C45.1046 43 46 42.1046 46 41V17.8825C46 17.2198 45.6718 16.6002 45.1235 16.2279L25.2854 2.75704C24.6115 2.29944 23.7274 2.29626 23.0503 2.74901L2.88838 16.2291C2.33327 16.6003 2 17.224 2 17.8917Z" stroke="white" stroke-width="4"/>
</svg>
