<svg viewBox="0 0 81 70" fill="none" xmlns="http://www.w3.org/2000/svg">
<g id="Icon">
<path d="M13.0562 65.425H67.3937C72.3954 65.425 76.45 61.6578 76.45 57.0106V22.5116C76.45 17.8645 72.3954 14.0973 67.3937 14.0973H58.3375L51.9981 4H28.4519L22.1125 14.0973H13.0562C8.05462 14.0973 4 17.8645 4 22.5116V57.0106C4 61.6577 8.05462 65.425 13.0562 65.425Z" fill="#041018"/>
<path d="M22.1125 14.0973V18.0973C23.4888 18.0973 24.7684 17.3897 25.5002 16.2241L22.1125 14.0973ZM28.4519 4V0C27.0756 0 25.796 0.707524 25.0642 1.87311L28.4519 4ZM51.9981 4L55.3858 1.87311C54.654 0.707525 53.3744 0 51.9981 0V4ZM58.3375 14.0973L54.9498 16.2241C55.6816 17.3897 56.9612 18.0973 58.3375 18.0973V14.0973ZM4 57.0106H8V22.5116H4H0V57.0106H4ZM13.0562 14.0973V18.0973H22.1125V14.0973V10.0973H13.0562V14.0973ZM22.1125 14.0973L25.5002 16.2241L31.8396 6.12689L28.4519 4L25.0642 1.87311L18.7248 11.9704L22.1125 14.0973ZM28.4519 4V8H51.9981V4V0H28.4519V4ZM51.9981 4L48.6105 6.12689L54.9498 16.2241L58.3375 14.0973L61.7252 11.9704L55.3858 1.87311L51.9981 4ZM58.3375 14.0973V18.0973H67.3937V14.0973V10.0973H58.3375V14.0973ZM76.45 22.5116H72.45V57.0106H76.45H80.45V22.5116H76.45ZM76.45 57.0106H72.45C72.45 59.1768 70.4683 61.425 67.3937 61.425V65.425V69.425C74.3225 69.425 80.45 64.1387 80.45 57.0106H76.45ZM67.3937 14.0973V18.0973C70.4682 18.0973 72.45 20.3455 72.45 22.5116H76.45H80.45C80.45 15.3835 74.3225 10.0973 67.3937 10.0973V14.0973ZM4 22.5116H8C8 20.3455 9.98175 18.0973 13.0562 18.0973V14.0973V10.0973C6.12749 10.0973 0 15.3835 0 22.5116H4ZM13.0562 65.425V61.425C9.98175 61.425 8 59.1768 8 57.0106H4H0C0 64.1387 6.12749 69.425 13.0562 69.425V65.425ZM53.5731 37.8625H49.5731C49.5731 42.3522 45.5641 46.4841 39.9888 46.4841V50.4841V54.4841C49.4183 54.4841 57.5731 47.3142 57.5731 37.8625H53.5731ZM39.9888 50.4841V46.4841C34.4134 46.4841 30.4044 42.3522 30.4044 37.8625H26.4044H22.4044C22.4044 47.3142 30.5592 54.4841 39.9888 54.4841V50.4841ZM26.4044 37.8625H30.4044C30.4044 33.3728 34.4134 29.2409 39.9888 29.2409V25.2409V21.2409C30.5592 21.2409 22.4044 28.4108 22.4044 37.8625H26.4044ZM39.9888 25.2409V29.2409C45.5641 29.2409 49.5731 33.3728 49.5731 37.8625H53.5731H57.5731C57.5731 28.4108 49.4183 21.2409 39.9888 21.2409V25.2409ZM67.3937 65.425V61.425H13.0562V65.425V69.425H67.3937V65.425Z" fill="#0A9788"/>
</g>
</svg>
