<svg viewBox="0 0 126 126" fill="none" xmlns="http://www.w3.org/2000/svg">
<g id="Group 1">
<circle id="Ellipse 2" cx="63" cy="63" r="63" fill="#0A9788"/>
<g id="Icon">
<path d="M35.8313 94.5H90.1688C95.1704 94.5 99.225 90.7328 99.225 86.0856V51.5867C99.225 46.9395 95.1704 43.1723 90.1688 43.1723H81.1125L74.7732 33.075H51.2269L44.8875 43.1723H35.8313C30.8296 43.1723 26.775 46.9395 26.775 51.5866V86.0856C26.775 90.7327 30.8296 94.5 35.8313 94.5Z" fill="#041018"/>
<path d="M44.8875 43.1723V47.1723C46.2638 47.1723 47.5434 46.4647 48.2752 45.2992L44.8875 43.1723ZM51.2269 33.075V29.075C49.8506 29.075 48.571 29.7825 47.8392 30.9481L51.2269 33.075ZM74.7732 33.075L78.1608 30.9481C77.429 29.7825 76.1494 29.075 74.7732 29.075V33.075ZM81.1125 43.1723L77.7248 45.2992C78.4566 46.4647 79.7363 47.1723 81.1125 47.1723V43.1723ZM26.775 86.0856H30.775V51.5866H26.775H22.775V86.0856H26.775ZM35.8313 43.1723V47.1723H44.8875V43.1723V39.1723H35.8313V43.1723ZM44.8875 43.1723L48.2752 45.2992L54.6146 35.2019L51.2269 33.075L47.8392 30.9481L41.4998 41.0454L44.8875 43.1723ZM51.2269 33.075V37.075H74.7732V33.075V29.075H51.2269V33.075ZM74.7732 33.075L71.3855 35.2019L77.7248 45.2992L81.1125 43.1723L84.5002 41.0454L78.1608 30.9481L74.7732 33.075ZM81.1125 43.1723V47.1723H90.1688V43.1723V39.1723H81.1125V43.1723ZM99.225 51.5867H95.225V86.0856H99.225H103.225V51.5867H99.225ZM99.225 86.0856H95.225C95.225 88.2518 93.2433 90.5 90.1688 90.5V94.5V98.5C97.0975 98.5 103.225 93.2137 103.225 86.0856H99.225ZM90.1688 43.1723V47.1723C93.2433 47.1723 95.225 49.4205 95.225 51.5867H99.225H103.225C103.225 44.4585 97.0975 39.1723 90.1688 39.1723V43.1723ZM26.775 51.5866H30.775C30.775 49.4205 32.7568 47.1723 35.8313 47.1723V43.1723V39.1723C28.9025 39.1723 22.775 44.4585 22.775 51.5866H26.775ZM35.8313 94.5V90.5C32.7568 90.5 30.775 88.2518 30.775 86.0856H26.775H22.775C22.775 93.2137 28.9025 98.5 35.8313 98.5V94.5ZM76.3482 66.9375H72.3482C72.3482 71.4272 68.3391 75.5591 62.7638 75.5591V79.5591V83.5591C72.1934 83.5591 80.3482 76.3892 80.3482 66.9375H76.3482ZM62.7638 79.5591V75.5591C57.1885 75.5591 53.1794 71.4272 53.1794 66.9375H49.1794H45.1794C45.1794 76.3892 53.3342 83.5591 62.7638 83.5591V79.5591ZM49.1794 66.9375H53.1794C53.1794 62.4478 57.1885 58.3159 62.7638 58.3159V54.3159V50.3159C53.3342 50.3159 45.1794 57.4858 45.1794 66.9375H49.1794ZM62.7638 54.3159V58.3159C68.3391 58.3159 72.3482 62.4478 72.3482 66.9375H76.3482H80.3482C80.3482 57.4858 72.1934 50.3159 62.7638 50.3159V54.3159ZM90.1688 94.5V90.5H35.8313V94.5V98.5H90.1688V94.5Z" fill="#0A9788"/>
</g>
<g id="Icon_2">
<path d="M35.8313 94.5H90.1688C95.1704 94.5 99.225 90.7328 99.225 86.0856V51.5867C99.225 46.9395 95.1704 43.1723 90.1688 43.1723H81.1125L74.7732 33.075H51.2269L44.8875 43.1723H35.8313C30.8296 43.1723 26.775 46.9395 26.775 51.5866V86.0856C26.775 90.7327 30.8296 94.5 35.8313 94.5Z" fill="#041018"/>
<path d="M44.8875 43.1723V47.1723C46.2638 47.1723 47.5434 46.4647 48.2752 45.2992L44.8875 43.1723ZM51.2269 33.075V29.075C49.8506 29.075 48.571 29.7825 47.8392 30.9481L51.2269 33.075ZM74.7732 33.075L78.1608 30.9481C77.429 29.7825 76.1494 29.075 74.7732 29.075V33.075ZM81.1125 43.1723L77.7248 45.2992C78.4566 46.4647 79.7363 47.1723 81.1125 47.1723V43.1723ZM26.775 86.0856H30.775V51.5866H26.775H22.775V86.0856H26.775ZM35.8313 43.1723V47.1723H44.8875V43.1723V39.1723H35.8313V43.1723ZM44.8875 43.1723L48.2752 45.2992L54.6146 35.2019L51.2269 33.075L47.8392 30.9481L41.4998 41.0454L44.8875 43.1723ZM51.2269 33.075V37.075H74.7732V33.075V29.075H51.2269V33.075ZM74.7732 33.075L71.3855 35.2019L77.7248 45.2992L81.1125 43.1723L84.5002 41.0454L78.1608 30.9481L74.7732 33.075ZM81.1125 43.1723V47.1723H90.1688V43.1723V39.1723H81.1125V43.1723ZM99.225 51.5867H95.225V86.0856H99.225H103.225V51.5867H99.225ZM99.225 86.0856H95.225C95.225 88.2518 93.2433 90.5 90.1688 90.5V94.5V98.5C97.0975 98.5 103.225 93.2137 103.225 86.0856H99.225ZM90.1688 43.1723V47.1723C93.2433 47.1723 95.225 49.4205 95.225 51.5867H99.225H103.225C103.225 44.4585 97.0975 39.1723 90.1688 39.1723V43.1723ZM26.775 51.5866H30.775C30.775 49.4205 32.7568 47.1723 35.8313 47.1723V43.1723V39.1723C28.9025 39.1723 22.775 44.4585 22.775 51.5866H26.775ZM35.8313 94.5V90.5C32.7568 90.5 30.775 88.2518 30.775 86.0856H26.775H22.775C22.775 93.2137 28.9025 98.5 35.8313 98.5V94.5ZM76.3482 66.9375H72.3482C72.3482 71.4272 68.3391 75.5591 62.7638 75.5591V79.5591V83.5591C72.1934 83.5591 80.3482 76.3892 80.3482 66.9375H76.3482ZM62.7638 79.5591V75.5591C57.1885 75.5591 53.1794 71.4272 53.1794 66.9375H49.1794H45.1794C45.1794 76.3892 53.3342 83.5591 62.7638 83.5591V79.5591ZM49.1794 66.9375H53.1794C53.1794 62.4478 57.1885 58.3159 62.7638 58.3159V54.3159V50.3159C53.3342 50.3159 45.1794 57.4858 45.1794 66.9375H49.1794ZM62.7638 54.3159V58.3159C68.3391 58.3159 72.3482 62.4478 72.3482 66.9375H76.3482H80.3482C80.3482 57.4858 72.1934 50.3159 62.7638 50.3159V54.3159ZM90.1688 94.5V90.5H35.8313V94.5V98.5H90.1688V94.5Z" fill="#0A9788"/>
</g>
</g>
</svg>
