<svg viewBox="0 0 62 52" fill="none" xmlns="http://www.w3.org/2000/svg">
<g id="Plant">
<path id="Vector 23" d="M25.0653 51C25.2193 48.3362 25.7283 43.6607 27.9107 36.6823M48.6186 8.61409C41.9788 12.7329 37.1417 18.0677 33.6192 23.6405M27.9107 36.6823C27.5101 31.5317 23.3581 22.3931 14 16.2691M27.9107 36.6823C29.304 32.2268 30.6456 28.345 33.6192 23.6405M33.6192 23.6405C41.5171 22.3647 54.6887 17.1479 60 5.3536C49.1574 0.486546 31.8631 -2.89674 33.6192 23.6405Z" stroke="#0A9788" stroke-width="3"/>
<path id="Vector 24" d="M24.5747 28C17.7814 26.7855 3.75581 21.9815 2 12.4814C12.3467 8.65795 31.347 6.40888 24.5747 28Z" stroke="#0A9788" stroke-width="3"/>
</g>
</svg>
