<svg viewBox="0 0 50 48" fill="none" xmlns="http://www.w3.org/2000/svg">
<g id="Schedule icon">
<path id="Ellipse 6" d="M38.5 24.5C43.9076 24.5 48.5 29.3047 48.5 35.5C48.5 41.6953 43.9076 46.5 38.5 46.5C33.0924 46.5 28.5 41.6953 28.5 35.5C28.5 29.3047 33.0924 24.5 38.5 24.5Z" stroke="#0A9788" stroke-width="3"/>
<path id="Vector 17" d="M43 25.2V6C43 4.89543 42.1046 4 41 4H4C2.89543 4 2 4.89543 2 6V38C2 39.1046 2.89543 40 4 40H28.2544" stroke="#0A9788" stroke-width="3"/>
<path id="Vector 18" d="M2.32642 16.6L43.4545 16.2" stroke="#0A9788" stroke-width="3"/>
<path id="Vector 19" d="M13 0V10" stroke="#0A9788" stroke-width="3"/>
<path id="Vector 20" d="M32 0V10" stroke="#0A9788" stroke-width="3"/>
<path id="Vector 21" d="M38 30V35C38 36.1046 38.8954 37 40 37H44" stroke="#0A9788" stroke-width="3"/>
</g>
</svg>
