<svg viewBox="0 0 71 69" fill="none" xmlns="http://www.w3.org/2000/svg">
<g id="Calendar white">
<path id="Ellipse 6" d="M50.5 36.5C55.9076 36.5 60.5 41.3047 60.5 47.5C60.5 53.6953 55.9076 58.5 50.5 58.5C45.0924 58.5 40.5 53.6953 40.5 47.5C40.5 41.3047 45.0924 36.5 50.5 36.5Z" stroke="white" stroke-width="3"/>
<path id="Vector 17" d="M55 37.2V18C55 16.8954 54.1046 16 53 16H16C14.8954 16 14 16.8954 14 18V50C14 51.1046 14.8954 52 16 52H40.2544" stroke="white" stroke-width="3"/>
<path id="Vector 18" d="M14.3264 28.6L55.4545 28.2" stroke="white" stroke-width="3"/>
<path id="Vector 19" d="M25 12V22" stroke="white" stroke-width="3"/>
<path id="Vector 20" d="M44 12V22" stroke="white" stroke-width="3"/>
<path id="Vector 21" d="M50 42V47C50 48.1046 50.8954 49 52 49H56" stroke="white" stroke-width="3"/>
</g>
</svg>
